<?xml version="1.0" encoding="UTF-8"?>
<svg id="SVGDoc" width="20" height="26" xmlns="http://www.w3.org/2000/svg" version="1.1" xmlns:xlink="http://www.w3.org/1999/xlink" xmlns:avocode="https://avocode.com/" viewBox="0 0 20 26"><defs></defs><desc>Generated with Avocode.</desc><g><g><title>link</title><path d="M18.62907,4.07612l-5.19621,-2.9999c-0.95663,-0.5523 -2.17971,-0.22459 -2.73196,0.73195l-3.50008,6.06227c-0.55217,0.95654 -0.22464,2.17974 0.73199,2.73204l0.86609,0.49996l1.00002,-1.73199c-0.4784,-0.27621 -0.6422,-0.88775 -0.36616,-1.36614l2.50014,-4.33004c0.27612,-0.47827 0.8877,-0.64218 1.36594,-0.36609l3.4642,2.00009c0.47823,0.27609 0.6422,0.88775 0.36591,1.36602l-2.49997,4.33016c-0.27612,0.47815 -0.88762,0.64206 -1.36594,0.36597l-1.00002,1.73199l0.86601,0.49996c0.95663,0.55242 2.17971,0.22459 2.73212,-0.73195l3.49991,-6.06215c0.55225,-0.95665 0.22447,-2.17974 -0.73199,-2.73216zM8.89703,16.9326l3.99992,-6.92821c0.27612,-0.47827 0.11215,-1.08981 -0.366,-1.36614c-0.47832,-0.27597 -1.08998,-0.11218 -1.36602,0.36609l-3.99992,6.92821c-0.27629,0.47827 -0.11232,1.08993 0.36591,1.36602c0.47832,0.27621 1.08998,0.11241 1.3661,-0.36597zM7.79888,12.83442l-0.86609,-0.49996c-0.95663,-0.55218 -2.17971,-0.22459 -2.73196,0.73218l-3.5,6.06215c-0.55225,0.95654 -0.22447,2.17974 0.73208,2.73204l5.19613,2.9999c0.95663,0.55242 2.17971,0.22459 2.73204,-0.73195l3.50008,-6.06227c0.55217,-0.95665 0.22447,-2.17974 -0.73216,-2.73204l-0.86601,-0.49996l-1.00002,1.73211h0.00008c0.47832,0.27597 0.6422,0.88763 0.366,1.3659l-2.50006,4.33016c-0.27621,0.47839 -0.8877,0.64218 -1.36594,0.36597l-3.46411,-1.99997c-0.47832,-0.27609 -0.64212,-0.88763 -0.366,-1.3659l2.49989,-4.33016c0.27621,-0.47827 0.88779,-0.64218 1.36602,-0.36609z" fill="#ffffff" fill-opacity="1"></path></g></g></svg>