<?xml version="1.0" encoding="UTF-8"?>
<svg id="SVGDoc" width="24" height="23" xmlns="http://www.w3.org/2000/svg" version="1.1" xmlns:xlink="http://www.w3.org/1999/xlink" xmlns:avocode="https://avocode.com/" viewBox="0 0 24 23"><defs></defs><desc>Generated with Avocode.</desc><g><g><title>comments</title><path d="M16.66801,16.67857l-7.66815,6.32131l1.72559,-5.6901c-6.02784,-0.46051 -10.72555,-4.14765 -10.72555,-8.62992c0,-4.79376 5.37262,-8.67999 11.99994,-8.67999c6.62749,0 12.00011,3.88622 12.00011,8.67999c0,3.59619 -3.02343,6.68144 -7.33194,7.9987zM11.99985,1.81318c-5.24336,0 -9.49413,3.07465 -9.49413,6.86741c0,3.79276 4.25076,6.86741 9.49413,6.86741c5.24353,0 9.49421,-3.07465 9.49421,-6.86741c0,-3.79276 -4.25068,-6.86741 -9.49421,-6.86741zM7.49983,8.16119h9.00004v1.48392h-9.00004zM7.49983,5.19347h9.00004v1.48392h-9.00004zM14.25949,12.61282h-4.50002v-1.48392h4.50002z" fill="#2aacc8" fill-opacity="1"></path></g></g></svg>