<?xml version="1.0" encoding="UTF-8"?>
<svg id="SVGDoc" width="24" height="20" xmlns="http://www.w3.org/2000/svg" version="1.1" xmlns:xlink="http://www.w3.org/1999/xlink" xmlns:avocode="https://avocode.com/" viewBox="0 0 24 20"><defs></defs><desc>Generated with Avocode.</desc><g><g><title>clients</title><path d="M23.99683,14.007v-0.91624c0,-0.91636 -1.15724,-1.83272 -1.15724,-1.83272c-2.08925,-0.62037 -3.29221,-1.65915 -3.85273,-2.26653v-0.61405c0.67976,0.07915 2.05112,-0.40877 1.45514,-0.70167c-0.28856,-0.14186 -0.46196,-0.40078 -0.57052,-0.65589c0.07093,-0.1961 0.12342,-0.40114 0.13552,-0.62048l0.01502,-0.27072c0.03763,0.0124 0.07577,0.0242 0.11733,0.0242c0.21304,0 0.38577,-0.17583 0.38577,-0.39279v-0.78535c0,-0.21696 -0.17273,-0.39279 -0.38577,-0.39279c-0.01127,0 -0.02078,0.0056 -0.03188,0.00656l0.02829,-0.50795c0.07769,-1.40083 -0.95396,-2.60687 -2.30913,-2.60687c-1.35534,0 -2.38816,1.20604 -2.31172,2.60687l0.0277,0.50807c-0.0111,-0.00095 -0.02078,-0.00668 -0.03221,-0.00668c-0.21304,0 -0.38577,0.17583 -0.38577,0.39279v0.78535c0,0.21696 0.17273,0.39279 0.38577,0.39279c0.04122,0 0.07894,-0.0118 0.11616,-0.02396l0.01477,0.27049c0.01051,0.19276 0.0479,0.3767 0.10422,0.55182c-0.10539,0.27633 -0.28338,0.56982 -0.59814,0.72455c-0.61383,0.30172 0.86058,0.81146 1.51547,0.69404v0.62168c-0.53164,0.57602 -1.65107,1.53601 -3.54656,2.16317l3.15094,2.85232zM14.58916,6.83251v-1.25289c0,-0.34606 -0.28397,-0.62656 -0.63428,-0.62656c-0.01861,0 -0.03421,0.00894 -0.0524,0.01049l0.0464,-0.8105c0.12776,-2.23458 -1.56863,-4.15862 -3.79707,-4.15862c-2.22852,0 -3.92691,1.92404 -3.80124,4.15862l0.04548,0.81062c-0.01844,-0.00155 -0.03421,-0.01061 -0.05299,-0.01061c-0.35031,0 -0.63436,0.2805 -0.63436,0.62656v1.25289c0,0.34606 0.28405,0.62656 0.63436,0.62656c0.06776,0 0.12984,-0.01872 0.19109,-0.03815l0.02428,0.43154c0.06642,1.18065 0.72932,2.18666 1.67986,2.77078v1.36423c-0.92183,0.96893 -2.89985,2.62618 -6.33551,3.61586c0,0 -1.90291,1.46186 -1.90291,2.92361v1.46186h20.29819v-1.46186c0,-1.46174 -1.903,-2.92361 -1.903,-2.92361c-3.43549,-0.98968 -5.41359,-2.64692 -6.33534,-3.61586v-1.36673c0.94854,-0.5846 1.6101,-1.58966 1.67753,-2.76828l0.0247,-0.4319c0.06167,0.01979 0.12442,0.0385 0.19293,0.0385c0.35031,0 0.63428,-0.2805 0.63428,-0.62656z" fill="#2aacc8" fill-opacity="1"></path></g></g></svg>