<?xml version="1.0" encoding="UTF-8"?>
<svg id="SVGDoc" width="35" height="25" xmlns="http://www.w3.org/2000/svg" version="1.1" xmlns:xlink="http://www.w3.org/1999/xlink" xmlns:avocode="https://avocode.com/" viewBox="0 0 35 25"><defs></defs><desc>Generated with Avocode.</desc><g><g><title>preview</title><path d="M17.32453,0.82461c9.99998,0 17.48029,11.65855 17.48029,11.65855c0,0 -7.54281,11.65855 -17.48029,11.65855c-10.62508,0 -17.16278,-11.65855 -17.16278,-11.65855c0,0 6.6002,-11.65855 17.16278,-11.65855zM12.17939,12.49592c0,2.89333 2.34535,5.23865 5.23877,5.23865c2.89326,0 5.23869,-2.34532 5.23869,-5.23865c0,-2.89333 -2.34543,-5.23889 -5.23869,-5.23889c-2.89342,0 -5.23877,2.34556 -5.23877,5.23889zM17.44987,9.87748c1.4402,0 2.6072,1.1673 2.6072,2.60723c0,1.44005 -1.167,2.60735 -2.6072,2.60735c-1.43995,0 -2.6072,-1.1673 -2.6072,-2.60735c0,-1.43993 1.16725,-2.60723 2.6072,-2.60723z" fill="#ffffff" fill-opacity="1"></path></g></g></svg>